<?xml version="1.0" encoding="UTF-8"?>
<svg xmlns="http://www.w3.org/2000/svg" xmlns:xlink="http://www.w3.org/1999/xlink" width="142pt" height="142pt" viewBox="0 0 142 142" version="1.1">
<g id="surface1">
<path style=" stroke:none;fill-rule:nonzero;fill:rgb(3.529412%,16.470588%,25.098039%);fill-opacity:1;" d="M 142 85.21875 L 142 56.78125 L 130.929688 53.566406 C 129.65625 49.183594 127.90625 44.957031 125.703125 40.953125 L 131.257812 30.847656 L 111.152344 10.742188 L 101.042969 16.296875 C 97.042969 14.09375 92.816406 12.34375 88.433594 11.070312 L 85.21875 0 L 71 0 L 37.71875 71 L 71 142 L 85.21875 142 L 88.433594 130.929688 C 92.816406 129.65625 97.042969 127.90625 101.046875 125.703125 L 111.152344 131.257812 L 131.257812 111.152344 L 125.703125 101.042969 C 127.90625 97.042969 129.65625 92.816406 130.929688 88.433594 Z M 142 85.21875 "/>
<path style=" stroke:none;fill-rule:nonzero;fill:rgb(13.72549%,36.078431%,50.588235%);fill-opacity:1;" d="M 56.78125 0 L 53.566406 11.070312 C 49.183594 12.34375 44.957031 14.09375 40.957031 16.296875 L 30.847656 10.742188 L 10.742188 30.847656 L 16.296875 40.957031 C 14.09375 44.957031 12.34375 49.183594 11.070312 53.566406 L 0 56.785156 L 0 85.21875 L 11.070312 88.433594 C 12.34375 92.816406 14.09375 97.042969 16.296875 101.046875 L 10.742188 111.152344 L 30.847656 131.257812 L 40.953125 125.703125 C 44.957031 127.90625 49.183594 129.65625 53.566406 130.929688 L 56.78125 142 L 71 142 L 71 0 Z M 56.78125 0 "/>
<path style=" stroke:none;fill-rule:nonzero;fill:rgb(35.294118%,45.882353%,52.941176%);fill-opacity:1;" d="M 71 21.078125 L 42.679688 71 L 91.800781 116.378906 C 108.972656 108.476562 120.921875 91.109375 120.921875 71 C 120.921875 43.472656 98.527344 21.078125 71 21.078125 Z M 71 21.078125 "/>
<path style=" stroke:none;fill-rule:nonzero;fill:rgb(35.294118%,45.882353%,52.941176%);fill-opacity:1;" d="M 71 21.078125 C 43.472656 21.078125 21.078125 43.472656 21.078125 71 C 21.078125 91.109375 33.027344 108.476562 50.199219 116.378906 L 71 116.378906 Z M 71 21.078125 "/>
<path style=" stroke:none;fill-rule:nonzero;fill:rgb(100%,80.784314%,27.843137%);fill-opacity:1;" d="M 109.828125 71 C 109.828125 49.589844 92.410156 32.171875 71 32.171875 L 48.972656 71 L 71 109.828125 C 92.410156 109.828125 109.828125 92.410156 109.828125 71 Z M 109.828125 71 "/>
<path style=" stroke:none;fill-rule:nonzero;fill:rgb(100%,88.627451%,56.470588%);fill-opacity:1;" d="M 71 32.171875 C 49.589844 32.171875 32.171875 49.589844 32.171875 71 C 32.171875 92.410156 49.589844 109.828125 71 109.828125 Z M 71 32.171875 "/>
<path style=" stroke:none;fill-rule:nonzero;fill:rgb(3.529412%,16.470588%,25.098039%);fill-opacity:1;" d="M 80.507812 58.730469 L 71 42.089844 L 62.679688 71.210938 Z M 80.507812 58.730469 "/>
<path style=" stroke:none;fill-rule:nonzero;fill:rgb(13.72549%,36.078431%,50.588235%);fill-opacity:1;" d="M 71 42.089844 L 61.492188 58.730469 L 71 71.210938 Z M 71 42.089844 "/>
<path style=" stroke:none;fill-rule:nonzero;fill:rgb(100%,96.078431%,85.098039%);fill-opacity:1;" d="M 58.519531 90.972656 L 91.800781 78.488281 L 80.507812 58.730469 L 71 58.730469 Z M 58.519531 90.972656 "/>
<path style=" stroke:none;fill-rule:nonzero;fill:rgb(100%,100%,100%);fill-opacity:1;" d="M 71 58.730469 L 61.492188 58.730469 L 50.199219 78.492188 L 71 90.972656 Z M 71 58.730469 "/>
<path style=" stroke:none;fill-rule:nonzero;fill:rgb(27.058824%,63.529412%,87.843137%);fill-opacity:1;" d="M 59.023438 99.707031 L 71 120.921875 C 78.417969 120.921875 85.464844 119.292969 91.800781 116.375 L 91.800781 78.488281 L 71 78.488281 Z M 59.023438 99.707031 "/>
<path style=" stroke:none;fill-rule:nonzero;fill:rgb(30.588235%,72.54902%,100%);fill-opacity:1;" d="M 50.199219 78.492188 L 50.199219 116.375 C 56.535156 119.292969 63.582031 120.921875 71 120.921875 L 71 78.492188 Z M 50.199219 78.492188 "/>
</g>
</svg>
