<?xml version="1.0" encoding="UTF-8"?>
<svg xmlns="http://www.w3.org/2000/svg" xmlns:xlink="http://www.w3.org/1999/xlink" width="75pt" height="75pt" viewBox="0 0 75 75" version="1.1">
<g id="surface1">
<path style=" stroke:none;fill-rule:nonzero;fill:rgb(85.882353%,90.196078%,99.215686%);fill-opacity:1;" d="M 61.4375 25.886719 C 61.4375 31.851562 59.027344 40.019531 55.078125 47.007812 C 52.707031 51.210938 47.523438 56.609375 47.523438 61.4375 L 37.089844 61.4375 L 37.089844 3.480469 C 50.539062 3.480469 61.4375 13.183594 61.4375 25.886719 Z M 61.4375 25.886719 "/>
<path style=" stroke:none;fill-rule:nonzero;fill:rgb(9.019608%,68.627451%,86.27451%);fill-opacity:1;" d="M 37.089844 23.179688 L 47.523438 23.179688 L 47.523438 37.089844 L 37.089844 37.089844 Z M 37.089844 23.179688 "/>
<path style=" stroke:none;fill-rule:nonzero;fill:rgb(98.823529%,80%,21.960784%);fill-opacity:1;" d="M 12.75 25.886719 C 12.75 31.851562 15.15625 40.019531 19.105469 47.007812 C 21.480469 51.210938 26.660156 56.609375 26.660156 61.4375 L 37.089844 61.4375 L 37.089844 3.480469 C 23.648438 3.480469 12.75 13.183594 12.75 25.886719 Z M 12.75 25.886719 "/>
<path style=" stroke:none;fill-rule:nonzero;fill:rgb(32.54902%,34.509804%,63.137255%);fill-opacity:1;" d="M 46.648438 66.066406 L 27.535156 66.066406 C 26.253906 66.066406 25.214844 65.03125 25.214844 63.75 L 25.214844 63.667969 C 25.226562 63.074219 25.476562 62.5 25.914062 62.09375 C 26.351562 61.6875 26.9375 61.480469 27.535156 61.515625 L 46.648438 61.515625 C 47.246094 61.480469 47.828125 61.6875 48.265625 62.09375 C 48.707031 62.5 48.957031 63.074219 48.964844 63.667969 L 48.964844 63.75 C 48.964844 65.03125 47.925781 66.066406 46.648438 66.066406 Z M 46.648438 66.066406 "/>
<path style=" stroke:none;fill-rule:nonzero;fill:rgb(32.54902%,34.509804%,63.137255%);fill-opacity:1;" d="M 27.238281 66.066406 L 46.945312 66.066406 C 48.222656 66.066406 49.257812 67.109375 49.257812 68.386719 L 49.257812 68.46875 C 49.257812 69.75 48.222656 70.785156 46.945312 70.785156 L 27.238281 70.785156 C 25.960938 70.785156 24.921875 69.75 24.921875 68.46875 L 24.921875 68.386719 C 24.921875 67.109375 25.960938 66.066406 27.238281 66.066406 Z M 27.238281 66.066406 "/>
<path style=" stroke:none;fill-rule:nonzero;fill:rgb(95.686275%,22.352941%,23.921569%);fill-opacity:1;" d="M 35.117188 14.042969 L 34.605469 16.460938 C 33.855469 16.601562 33.121094 16.796875 32.402344 17.058594 L 30.734375 15.199219 C 29.527344 15.722656 28.386719 16.390625 27.335938 17.1875 L 28.101562 19.53125 C 27.519531 20.023438 26.980469 20.566406 26.488281 21.152344 L 24.144531 20.378906 C 23.351562 21.429688 22.679688 22.570312 22.15625 23.78125 L 24.007812 25.445312 C 23.75 26.164062 23.554688 26.902344 23.414062 27.648438 L 20.996094 28.15625 C 20.820312 29.472656 20.820312 30.800781 20.996094 32.113281 L 23.414062 32.621094 C 23.554688 33.371094 23.75 34.109375 24.007812 34.832031 L 22.15625 36.488281 C 22.679688 37.699219 23.351562 38.84375 24.144531 39.890625 L 26.488281 39.121094 C 26.980469 39.707031 27.519531 40.246094 28.101562 40.742188 L 27.335938 43.082031 C 28.382812 43.878906 29.527344 44.550781 30.734375 45.070312 L 32.402344 43.21875 C 33.121094 43.476562 33.855469 43.675781 34.605469 43.808594 L 35.117188 46.230469 C 35.769531 46.316406 36.429688 46.359375 37.089844 46.363281 L 37.089844 13.910156 C 36.429688 13.914062 35.769531 13.957031 35.117188 14.042969 Z M 35.117188 14.042969 "/>
<path style=" stroke:none;fill-rule:nonzero;fill:rgb(96.862745%,92.941176%,82.745098%);fill-opacity:1;" d="M 37.089844 39.410156 C 31.964844 39.410156 27.820312 35.257812 27.820312 30.136719 C 27.820312 25.015625 31.964844 20.863281 37.089844 20.863281 "/>
<path style=" stroke:none;fill-rule:nonzero;fill:rgb(98.823529%,80%,21.960784%);fill-opacity:1;" d="M 46.363281 12.75 C 46.363281 14.03125 45.324219 15.070312 44.046875 15.070312 C 42.765625 15.070312 41.726562 14.03125 41.726562 12.75 C 41.726562 11.46875 42.765625 10.433594 44.046875 10.433594 C 45.324219 10.433594 46.363281 11.46875 46.363281 12.75 Z M 46.363281 12.75 "/>
<path style=" stroke:none;fill-rule:nonzero;fill:rgb(98.823529%,80%,21.960784%);fill-opacity:1;" d="M 55.636719 18.546875 C 55.636719 19.828125 54.597656 20.863281 53.316406 20.863281 C 52.042969 20.863281 51.003906 19.828125 51.003906 18.546875 C 51.003906 17.265625 52.042969 16.230469 53.316406 16.230469 C 54.597656 16.230469 55.636719 17.265625 55.636719 18.546875 Z M 55.636719 18.546875 "/>
<path style=" stroke:none;fill-rule:nonzero;fill:rgb(98.823529%,80%,21.960784%);fill-opacity:1;" d="M 61.4375 33.613281 C 61.4375 34.894531 60.390625 35.933594 59.113281 35.933594 C 57.835938 35.933594 56.796875 34.894531 56.796875 33.613281 C 56.796875 32.335938 57.835938 31.296875 59.113281 31.296875 C 60.390625 31.296875 61.4375 32.335938 61.4375 33.613281 Z M 61.4375 33.613281 "/>
<path style=" stroke:none;fill-rule:nonzero;fill:rgb(98.823529%,80%,21.960784%);fill-opacity:1;" d="M 48.679688 47.523438 C 48.679688 48.800781 47.644531 49.84375 46.363281 49.84375 C 45.085938 49.84375 44.046875 48.800781 44.046875 47.523438 C 44.046875 46.246094 45.085938 45.207031 46.363281 45.207031 C 47.644531 45.207031 48.679688 46.246094 48.679688 47.523438 Z M 48.679688 47.523438 "/>
<path style=" stroke:none;fill-rule:nonzero;fill:rgb(0%,0%,0%);fill-opacity:1;" d="M 49.339844 58.457031 L 47.1875 57.605469 C 47.5 56.828125 47.859375 56.070312 48.269531 55.34375 L 50.300781 56.464844 C 49.941406 57.105469 49.621094 57.773438 49.339844 58.457031 Z M 49.339844 58.457031 "/>
<path style=" stroke:none;fill-rule:nonzero;fill:rgb(0%,0%,0%);fill-opacity:1;" d="M 51.476562 54.511719 L 49.535156 53.25 C 49.96875 52.582031 50.421875 51.914062 50.878906 51.261719 L 52.78125 52.585938 C 52.339844 53.222656 51.898438 53.859375 51.476562 54.511719 Z M 51.476562 54.511719 "/>
<path style=" stroke:none;fill-rule:nonzero;fill:rgb(0%,0%,0%);fill-opacity:1;" d="M 54.136719 50.648438 L 52.234375 49.324219 C 52.6875 48.664062 53.121094 48.019531 53.515625 47.402344 L 55.476562 48.636719 C 55.066406 49.285156 54.613281 49.957031 54.136719 50.648438 Z M 54.136719 50.648438 "/>
<path style=" stroke:none;fill-rule:nonzero;fill:rgb(0%,0%,0%);fill-opacity:1;" d="M 56.691406 46.515625 L 54.644531 45.425781 C 55.007812 44.746094 55.355469 44.0625 55.691406 43.363281 L 57.78125 44.363281 C 57.433594 45.089844 57.074219 45.804688 56.691406 46.515625 Z M 56.691406 46.515625 "/>
<path style=" stroke:none;fill-rule:nonzero;fill:rgb(0%,0%,0%);fill-opacity:1;" d="M 58.773438 42.164062 L 56.636719 41.253906 C 56.945312 40.542969 57.230469 39.824219 57.5 39.109375 L 59.667969 39.925781 C 59.390625 40.675781 59.09375 41.417969 58.773438 42.164062 Z M 58.773438 42.164062 "/>
<path style=" stroke:none;fill-rule:nonzero;fill:rgb(0%,0%,0%);fill-opacity:1;" d="M 62.492188 28.15625 L 60.179688 27.96875 C 60.242188 27.265625 60.273438 26.574219 60.273438 25.929688 L 60.269531 25.714844 L 62.589844 25.695312 L 62.59375 25.929688 C 62.59375 26.636719 62.558594 27.390625 62.492188 28.15625 Z M 62.492188 28.15625 "/>
<path style=" stroke:none;fill-rule:nonzero;fill:rgb(0%,0%,0%);fill-opacity:1;" d="M 60.132812 23.488281 C 60.039062 22.746094 59.914062 22.011719 59.742188 21.292969 L 62 20.765625 C 62.191406 21.566406 62.332031 22.386719 62.429688 23.210938 Z M 60.132812 23.488281 "/>
<path style=" stroke:none;fill-rule:nonzero;fill:rgb(0%,0%,0%);fill-opacity:1;" d="M 59.113281 19.148438 C 58.863281 18.449219 58.574219 17.761719 58.25 17.089844 L 60.332031 16.078125 C 60.699219 16.824219 61.023438 17.589844 61.296875 18.375 Z M 59.113281 19.148438 "/>
<path style=" stroke:none;fill-rule:nonzero;fill:rgb(0%,0%,0%);fill-opacity:1;" d="M 57.164062 15.148438 C 56.761719 14.511719 56.332031 13.910156 55.867188 13.324219 L 57.683594 11.882812 C 58.199219 12.53125 58.683594 13.210938 59.125 13.910156 Z M 57.164062 15.148438 "/>
<path style=" stroke:none;fill-rule:nonzero;fill:rgb(0%,0%,0%);fill-opacity:1;" d="M 54.382812 11.644531 C 53.859375 11.109375 53.304688 10.605469 52.730469 10.128906 L 54.207031 8.347656 C 54.84375 8.875 55.457031 9.429688 56.039062 10.019531 Z M 54.382812 11.644531 "/>
<path style=" stroke:none;fill-rule:nonzero;fill:rgb(0%,0%,0%);fill-opacity:1;" d="M 50.929688 8.78125 C 50.3125 8.367188 49.667969 7.976562 49.003906 7.621094 L 50.105469 5.582031 C 50.832031 5.976562 51.546875 6.40625 52.222656 6.859375 Z M 50.929688 8.78125 "/>
<path style=" stroke:none;fill-rule:nonzero;fill:rgb(0%,0%,0%);fill-opacity:1;" d="M 46.976562 6.648438 C 46.296875 6.359375 45.585938 6.097656 44.859375 5.867188 L 45.5625 3.65625 C 46.355469 3.90625 47.132812 4.195312 47.878906 4.515625 Z M 46.976562 6.648438 "/>
<path style=" stroke:none;fill-rule:nonzero;fill:rgb(0%,0%,0%);fill-opacity:1;" d="M 42.679688 5.28125 C 41.953125 5.121094 41.207031 4.992188 40.460938 4.890625 L 40.753906 2.59375 C 41.570312 2.699219 42.390625 2.839844 43.183594 3.015625 Z M 42.679688 5.28125 "/>
<path style=" stroke:none;fill-rule:nonzero;fill:rgb(0%,0%,0%);fill-opacity:1;" d="M 59.113281 30.136719 C 57.644531 30.144531 56.339844 31.070312 55.847656 32.457031 L 48.679688 32.457031 L 48.679688 27.820312 L 53.316406 27.820312 C 53.957031 27.820312 54.476562 27.300781 54.476562 26.660156 L 54.476562 21.808594 C 56.070312 21.246094 57.035156 19.609375 56.75 17.941406 C 56.457031 16.273438 55.015625 15.054688 53.316406 15.054688 C 51.625 15.054688 50.179688 16.273438 49.894531 17.941406 C 49.605469 19.609375 50.5625 21.246094 52.15625 21.808594 L 52.15625 25.5 L 48.679688 25.5 L 48.679688 23.179688 C 48.679688 22.539062 48.164062 22.023438 47.523438 22.023438 L 45.207031 22.023438 L 45.207031 16.011719 C 46.800781 15.449219 47.761719 13.816406 47.472656 12.148438 C 47.1875 10.480469 45.734375 9.257812 44.046875 9.257812 C 42.351562 9.257812 40.90625 10.480469 40.621094 12.148438 C 40.335938 13.8125 41.289062 15.449219 42.886719 16.011719 L 42.886719 22.023438 L 38.253906 22.023438 L 38.253906 3.515625 C 38.253906 2.875 37.730469 2.363281 37.089844 2.363281 C 22.792969 2.363281 11.589844 12.714844 11.589844 25.929688 C 11.589844 32.203125 14.085938 40.515625 18.09375 47.617188 C 18.8125 48.894531 19.753906 50.230469 20.753906 51.652344 C 22.855469 54.652344 25.195312 58.023438 25.453125 60.960938 C 24.5625 61.59375 24.035156 62.613281 24.054688 63.714844 C 24.0625 64.492188 24.335938 65.253906 24.824219 65.863281 C 24.140625 66.539062 23.753906 67.46875 23.757812 68.425781 C 23.761719 70.347656 25.320312 71.902344 27.238281 71.902344 L 46.945312 71.902344 C 47.878906 71.898438 48.773438 71.515625 49.425781 70.851562 C 50.074219 70.183594 50.4375 69.28125 50.421875 68.347656 C 50.421875 67.40625 50.035156 66.5 49.351562 65.851562 C 49.855469 65.21875 50.125 64.433594 50.125 63.628906 C 50.125 62.726562 49.75 61.851562 49.097656 61.230469 C 48.4375 60.605469 47.550781 60.269531 46.648438 60.316406 L 38.253906 60.316406 L 38.253906 38.253906 L 40.566406 38.253906 L 40.566406 41.726562 C 40.566406 42.367188 41.089844 42.886719 41.726562 42.886719 L 45.207031 42.886719 L 45.207031 44.257812 C 43.609375 44.824219 42.648438 46.453125 42.933594 48.125 C 43.222656 49.796875 44.671875 51.011719 46.363281 51.011719 C 48.058594 51.011719 49.503906 49.796875 49.789062 48.125 C 50.074219 46.453125 49.121094 44.824219 47.523438 44.257812 L 47.523438 41.726562 C 47.523438 41.089844 47.007812 40.566406 46.363281 40.566406 L 42.886719 40.566406 L 42.886719 38.253906 L 47.523438 38.253906 C 48.164062 38.253906 48.679688 37.730469 48.679688 37.089844 L 48.679688 34.773438 L 55.847656 34.773438 C 56.445312 36.4375 58.1875 37.390625 59.910156 36.988281 C 61.625 36.589844 62.773438 34.957031 62.566406 33.203125 C 62.367188 31.453125 60.878906 30.132812 59.113281 30.136719 Z M 53.316406 17.382812 C 53.957031 17.382812 54.476562 17.902344 54.476562 18.546875 C 54.476562 19.1875 53.957031 19.703125 53.316406 19.703125 C 52.679688 19.703125 52.15625 19.1875 52.15625 18.546875 C 52.15625 17.902344 52.679688 17.382812 53.316406 17.382812 Z M 22.648438 50.320312 C 21.6875 48.949219 20.777344 47.65625 20.113281 46.476562 C 16.34375 39.804688 13.910156 31.738281 13.910156 25.929688 C 13.910156 14.371094 23.492188 5.242188 35.933594 4.707031 L 35.933594 12.796875 C 35.625 12.824219 35.308594 12.851562 34.972656 12.890625 C 34.484375 12.953125 34.082031 13.320312 33.980469 13.800781 L 33.628906 15.484375 C 33.332031 15.554688 33.046875 15.628906 32.757812 15.71875 L 31.605469 14.429688 C 31.269531 14.058594 30.738281 13.941406 30.28125 14.136719 C 28.984375 14.695312 27.761719 15.410156 26.632812 16.261719 C 26.242188 16.5625 26.078125 17.078125 26.234375 17.550781 L 26.761719 19.175781 C 26.550781 19.375 26.335938 19.59375 26.125 19.8125 L 24.507812 19.277344 C 24.035156 19.132812 23.523438 19.289062 23.222656 19.683594 C 22.363281 20.804688 21.648438 22.035156 21.089844 23.332031 C 20.894531 23.785156 21.007812 24.320312 21.386719 24.644531 L 22.671875 25.804688 C 22.585938 26.089844 22.507812 26.375 22.4375 26.660156 L 20.640625 27.027344 C 20.09375 27.132812 19.703125 27.609375 19.703125 28.15625 L 19.703125 32.113281 C 19.703125 32.664062 20.09375 33.140625 20.640625 33.25 L 22.4375 33.609375 C 22.507812 33.898438 22.585938 34.183594 22.671875 34.472656 L 21.382812 35.625 C 21.007812 35.957031 20.894531 36.484375 21.089844 36.945312 C 21.648438 38.238281 22.363281 39.464844 23.222656 40.589844 C 23.523438 40.988281 24.035156 41.152344 24.507812 40.992188 L 26.125 40.464844 C 26.335938 40.679688 26.550781 40.894531 26.761719 41.101562 L 26.230469 42.71875 C 26.078125 43.191406 26.242188 43.707031 26.632812 44.007812 C 27.757812 44.859375 28.984375 45.578125 30.28125 46.140625 C 30.738281 46.328125 31.269531 46.214844 31.605469 45.84375 L 32.757812 44.558594 C 33.046875 44.644531 33.332031 44.722656 33.628906 44.792969 L 33.976562 46.46875 C 34.082031 46.957031 34.484375 47.320312 34.972656 47.378906 C 35.308594 47.425781 35.625 47.449219 35.933594 47.472656 L 35.933594 60.316406 L 27.71875 60.316406 C 27.246094 56.898438 24.824219 53.421875 22.648438 50.320312 Z M 26.660156 30.136719 C 26.664062 35.445312 30.660156 39.90625 35.933594 40.5 L 35.933594 44.488281 L 35.738281 43.570312 C 35.644531 43.109375 35.277344 42.753906 34.8125 42.671875 C 34.125 42.546875 33.445312 42.363281 32.789062 42.125 C 32.664062 42.078125 32.535156 42.058594 32.402344 42.058594 C 32.074219 42.058594 31.757812 42.199219 31.535156 42.445312 L 30.445312 43.660156 C 29.84375 43.359375 29.257812 43.015625 28.703125 42.636719 L 29.207031 41.101562 C 29.351562 40.652344 29.210938 40.164062 28.851562 39.855469 C 28.320312 39.402344 27.824219 38.90625 27.367188 38.371094 C 27.0625 38.015625 26.570312 37.878906 26.121094 38.023438 L 24.589844 38.527344 C 24.214844 37.96875 23.871094 37.386719 23.570312 36.78125 L 24.78125 35.691406 C 25.136719 35.375 25.261719 34.878906 25.105469 34.433594 C 24.867188 33.78125 24.683594 33.105469 24.558594 32.417969 C 24.46875 31.949219 24.109375 31.582031 23.644531 31.488281 L 22.023438 31.164062 L 22.023438 29.109375 L 23.644531 28.789062 C 24.109375 28.695312 24.472656 28.324219 24.558594 27.859375 C 24.683594 27.171875 24.867188 26.496094 25.105469 25.835938 C 25.261719 25.390625 25.136719 24.894531 24.78125 24.578125 L 23.570312 23.492188 C 23.871094 22.886719 24.214844 22.300781 24.589844 21.746094 L 26.121094 22.25 C 26.570312 22.394531 27.0625 22.253906 27.367188 21.898438 C 27.824219 21.363281 28.320312 20.867188 28.855469 20.414062 C 29.210938 20.109375 29.351562 19.617188 29.207031 19.171875 L 28.703125 17.636719 C 29.261719 17.257812 29.84375 16.917969 30.445312 16.613281 L 31.535156 17.832031 C 31.851562 18.179688 32.347656 18.304688 32.789062 18.144531 C 33.445312 17.90625 34.125 17.726562 34.8125 17.605469 C 35.277344 17.519531 35.644531 17.160156 35.738281 16.699219 L 35.933594 15.789062 L 35.933594 19.773438 C 30.660156 20.367188 26.664062 24.828125 26.660156 30.136719 Z M 35.933594 22.117188 L 35.933594 38.160156 C 31.941406 37.585938 28.976562 34.167969 28.976562 30.136719 C 28.976562 26.101562 31.941406 22.6875 35.933594 22.117188 Z M 46.945312 69.585938 L 27.238281 69.585938 C 26.917969 69.582031 26.617188 69.445312 26.398438 69.210938 C 26.175781 68.980469 26.0625 68.664062 26.078125 68.347656 C 26.078125 67.703125 26.597656 67.183594 27.238281 67.183594 L 46.945312 67.183594 C 47.261719 67.191406 47.566406 67.328125 47.785156 67.5625 C 48.003906 67.792969 48.121094 68.109375 48.101562 68.425781 C 48.101562 69.066406 47.585938 69.585938 46.945312 69.585938 Z M 46.648438 62.628906 C 46.949219 62.605469 47.246094 62.707031 47.46875 62.914062 C 47.691406 63.117188 47.808594 63.410156 47.804688 63.714844 C 47.804688 64.351562 47.285156 64.871094 46.648438 64.871094 L 27.535156 64.871094 C 27.21875 64.863281 26.910156 64.726562 26.691406 64.496094 C 26.472656 64.257812 26.359375 63.949219 26.375 63.628906 C 26.390625 63.335938 26.519531 63.070312 26.742188 62.882812 C 26.960938 62.691406 27.25 62.601562 27.535156 62.628906 Z M 46.363281 46.363281 C 47.007812 46.363281 47.523438 46.882812 47.523438 47.523438 C 47.523438 48.164062 47.007812 48.679688 46.363281 48.679688 C 45.722656 48.679688 45.207031 48.164062 45.207031 47.523438 C 45.207031 46.882812 45.722656 46.363281 46.363281 46.363281 Z M 44.046875 11.589844 C 44.683594 11.589844 45.207031 12.109375 45.207031 12.75 C 45.207031 13.390625 44.683594 13.910156 44.046875 13.910156 C 43.402344 13.910156 42.886719 13.390625 42.886719 12.75 C 42.886719 12.109375 43.402344 11.589844 44.046875 11.589844 Z M 46.363281 35.933594 L 38.253906 35.933594 L 38.253906 24.34375 L 46.363281 24.34375 Z M 59.113281 34.773438 C 58.472656 34.773438 57.957031 34.253906 57.957031 33.613281 C 57.957031 32.972656 58.472656 32.457031 59.113281 32.457031 C 59.753906 32.457031 60.273438 32.972656 60.273438 33.613281 C 60.273438 34.253906 59.753906 34.773438 59.113281 34.773438 Z M 59.113281 34.773438 "/>
<path style=" stroke:none;fill-rule:nonzero;fill:rgb(98.823529%,80%,21.960784%);fill-opacity:1;" d="M 4.640625 64.90625 L 6.949219 64.90625 L 6.949219 67.230469 L 4.640625 67.230469 Z M 4.640625 64.90625 "/>
<path style=" stroke:none;fill-rule:nonzero;fill:rgb(98.823529%,80%,21.960784%);fill-opacity:1;" d="M 4.640625 69.546875 L 6.949219 69.546875 L 6.949219 71.867188 L 4.640625 71.867188 Z M 4.640625 69.546875 "/>
<path style=" stroke:none;fill-rule:nonzero;fill:rgb(98.823529%,80%,21.960784%);fill-opacity:1;" d="M 6.949219 67.230469 L 9.273438 67.230469 L 9.273438 69.546875 L 6.949219 69.546875 Z M 6.949219 67.230469 "/>
<path style=" stroke:none;fill-rule:nonzero;fill:rgb(98.823529%,80%,21.960784%);fill-opacity:1;" d="M 2.316406 67.230469 L 4.640625 67.230469 L 4.640625 69.546875 L 2.316406 69.546875 Z M 2.316406 67.230469 "/>
<path style=" stroke:none;fill-rule:nonzero;fill:rgb(98.823529%,80%,21.960784%);fill-opacity:1;" d="M 68.386719 2.316406 L 70.703125 2.316406 L 70.703125 4.640625 L 68.386719 4.640625 Z M 68.386719 2.316406 "/>
<path style=" stroke:none;fill-rule:nonzero;fill:rgb(98.823529%,80%,21.960784%);fill-opacity:1;" d="M 68.386719 6.949219 L 70.703125 6.949219 L 70.703125 9.273438 L 68.386719 9.273438 Z M 68.386719 6.949219 "/>
<path style=" stroke:none;fill-rule:nonzero;fill:rgb(98.823529%,80%,21.960784%);fill-opacity:1;" d="M 70.703125 4.640625 L 73.027344 4.640625 L 73.027344 6.949219 L 70.703125 6.949219 Z M 70.703125 4.640625 "/>
<path style=" stroke:none;fill-rule:nonzero;fill:rgb(98.823529%,80%,21.960784%);fill-opacity:1;" d="M 66.066406 4.640625 L 68.386719 4.640625 L 68.386719 6.949219 L 66.066406 6.949219 Z M 66.066406 4.640625 "/>
</g>
</svg>
