<?xml version="1.0" encoding="UTF-8"?>
<svg xmlns="http://www.w3.org/2000/svg" xmlns:xlink="http://www.w3.org/1999/xlink" width="142pt" height="142pt" viewBox="0 0 142 142" version="1.1">
<g id="surface1">
<path style=" stroke:none;fill-rule:nonzero;fill:rgb(99.215686%,71.372549%,18.431373%);fill-opacity:1;" d="M 130.167969 84.015625 C 130.167969 93.167969 122.75 100.582031 113.601562 100.582031 C 104.449219 100.582031 97.035156 93.167969 97.035156 84.015625 C 97.035156 74.867188 104.449219 67.449219 113.601562 67.449219 C 122.75 67.449219 130.167969 74.867188 130.167969 84.015625 Z M 130.167969 84.015625 "/>
<path style=" stroke:none;fill-rule:nonzero;fill:rgb(41.960784%,58.823529%,16.470588%);fill-opacity:1;" d="M 68.632812 17.75 L 73.367188 17.75 L 73.367188 62.714844 L 68.632812 62.714844 Z M 68.632812 17.75 "/>
<path style=" stroke:none;fill-rule:nonzero;fill:rgb(53.333333%,70.196078%,21.568627%);fill-opacity:1;" d="M 71 17.75 L 66.265625 17.75 C 57.117188 17.75 49.699219 10.332031 49.699219 1.183594 L 54.433594 1.183594 C 63.582031 1.183594 71 8.601562 71 17.75 Z M 71 17.75 "/>
<path style=" stroke:none;fill-rule:nonzero;fill:rgb(100%,65.882353%,23.921569%);fill-opacity:1;" d="M 49.699219 72.183594 L 82.832031 72.183594 L 82.832031 81.648438 L 49.699219 81.648438 Z M 49.699219 72.183594 "/>
<path style=" stroke:none;fill-rule:nonzero;fill:rgb(99.215686%,71.372549%,18.431373%);fill-opacity:1;" d="M 54.433594 81.648438 L 87.566406 81.648438 L 87.566406 91.117188 L 54.433594 91.117188 Z M 54.433594 81.648438 "/>
<path style=" stroke:none;fill-rule:nonzero;fill:rgb(100%,65.882353%,23.921569%);fill-opacity:1;" d="M 49.699219 91.117188 L 82.832031 91.117188 L 82.832031 100.582031 L 49.699219 100.582031 Z M 49.699219 91.117188 "/>
<path style=" stroke:none;fill-rule:nonzero;fill:rgb(99.215686%,71.372549%,18.431373%);fill-opacity:1;" d="M 54.433594 100.582031 L 87.566406 100.582031 L 87.566406 110.050781 L 54.433594 110.050781 Z M 54.433594 100.582031 "/>
<path style=" stroke:none;fill-rule:nonzero;fill:rgb(100%,65.882353%,23.921569%);fill-opacity:1;" d="M 54.433594 110.050781 L 87.566406 110.050781 L 87.566406 119.515625 L 54.433594 119.515625 Z M 54.433594 110.050781 "/>
<path style=" stroke:none;fill-rule:nonzero;fill:rgb(99.215686%,71.372549%,18.431373%);fill-opacity:1;" d="M 59.167969 119.515625 L 92.300781 119.515625 L 92.300781 128.984375 L 59.167969 128.984375 Z M 59.167969 119.515625 "/>
<path style=" stroke:none;fill-rule:nonzero;fill:rgb(100%,65.882353%,23.921569%);fill-opacity:1;" d="M 54.433594 128.984375 L 87.566406 128.984375 L 87.566406 138.449219 L 54.433594 138.449219 Z M 54.433594 128.984375 "/>
<path style=" stroke:none;fill-rule:nonzero;fill:rgb(53.333333%,70.196078%,21.568627%);fill-opacity:1;" d="M 42.601562 24.851562 L 47.332031 24.851562 C 60.40625 24.851562 71 35.445312 71 48.515625 L 66.265625 48.515625 C 53.195312 48.515625 42.601562 37.921875 42.601562 24.851562 Z M 42.601562 24.851562 "/>
<path style=" stroke:none;fill-rule:nonzero;fill:rgb(41.960784%,58.823529%,16.470588%);fill-opacity:1;" d="M 92.300781 1.183594 L 87.566406 1.183594 C 78.417969 1.183594 71 8.601562 71 17.75 L 75.734375 17.75 C 84.882812 17.75 92.300781 10.332031 92.300781 1.183594 Z M 92.300781 1.183594 "/>
<path style=" stroke:none;fill-rule:nonzero;fill:rgb(41.960784%,58.823529%,16.470588%);fill-opacity:1;" d="M 75.734375 48.515625 L 71 48.515625 C 71 35.445312 81.59375 24.851562 94.667969 24.851562 L 99.398438 24.851562 C 99.398438 37.921875 88.804688 48.515625 75.734375 48.515625 Z M 75.734375 48.515625 "/>
<path style=" stroke:none;fill-rule:nonzero;fill:rgb(99.215686%,71.372549%,18.431373%);fill-opacity:1;" d="M 7.101562 91.117188 L 40.234375 91.117188 L 40.234375 100.582031 L 7.101562 100.582031 Z M 7.101562 91.117188 "/>
<path style=" stroke:none;fill-rule:nonzero;fill:rgb(100%,65.882353%,23.921569%);fill-opacity:1;" d="M 7.101562 100.582031 L 40.234375 100.582031 L 40.234375 110.050781 L 7.101562 110.050781 Z M 7.101562 100.582031 "/>
<path style=" stroke:none;fill-rule:nonzero;fill:rgb(99.215686%,71.372549%,18.431373%);fill-opacity:1;" d="M 11.832031 110.050781 L 44.96875 110.050781 L 44.96875 119.515625 L 11.832031 119.515625 Z M 11.832031 110.050781 "/>
<path style=" stroke:none;fill-rule:nonzero;fill:rgb(100%,65.882353%,23.921569%);fill-opacity:1;" d="M 7.101562 119.515625 L 40.234375 119.515625 L 40.234375 128.984375 L 7.101562 128.984375 Z M 7.101562 119.515625 "/>
<path style=" stroke:none;fill-rule:nonzero;fill:rgb(99.215686%,71.372549%,18.431373%);fill-opacity:1;" d="M 11.832031 128.984375 L 44.96875 128.984375 L 44.96875 138.449219 L 11.832031 138.449219 Z M 11.832031 128.984375 "/>
<path style=" stroke:none;fill-rule:nonzero;fill:rgb(99.215686%,71.372549%,18.431373%);fill-opacity:1;" d="M 97.035156 100.582031 L 130.167969 100.582031 L 130.167969 110.050781 L 97.035156 110.050781 Z M 97.035156 100.582031 "/>
<path style=" stroke:none;fill-rule:nonzero;fill:rgb(100%,65.882353%,23.921569%);fill-opacity:1;" d="M 101.765625 110.050781 L 134.898438 110.050781 L 134.898438 119.515625 L 101.765625 119.515625 Z M 101.765625 110.050781 "/>
<path style=" stroke:none;fill-rule:nonzero;fill:rgb(99.215686%,71.372549%,18.431373%);fill-opacity:1;" d="M 101.765625 119.515625 L 134.898438 119.515625 L 134.898438 128.984375 L 101.765625 128.984375 Z M 101.765625 119.515625 "/>
<path style=" stroke:none;fill-rule:nonzero;fill:rgb(100%,65.882353%,23.921569%);fill-opacity:1;" d="M 101.765625 128.984375 L 134.898438 128.984375 L 134.898438 138.449219 L 101.765625 138.449219 Z M 101.765625 128.984375 "/>
<path style=" stroke:none;fill-rule:nonzero;fill:rgb(100%,65.882353%,23.921569%);fill-opacity:1;" d="M 123.066406 84.015625 C 123.066406 89.246094 118.828125 93.484375 113.601562 93.484375 C 108.371094 93.484375 104.132812 89.246094 104.132812 84.015625 C 104.132812 78.789062 108.371094 74.550781 113.601562 74.550781 C 118.828125 74.550781 123.066406 78.789062 123.066406 84.015625 Z M 123.066406 84.015625 "/>
<path style=" stroke:none;fill-rule:nonzero;fill:rgb(99.215686%,48.235294%,18.431373%);fill-opacity:1;" d="M 113.601562 93.484375 L 113.601562 88.75 C 116.214844 88.75 118.332031 86.632812 118.332031 84.015625 L 123.066406 84.015625 C 123.066406 89.246094 118.828125 93.484375 113.601562 93.484375 Z M 113.601562 93.484375 "/>
<path style=" stroke:none;fill-rule:nonzero;fill:rgb(99.215686%,48.235294%,18.431373%);fill-opacity:1;" d="M 108.867188 84.015625 L 104.132812 84.015625 C 104.132812 78.789062 108.371094 74.550781 113.601562 74.550781 L 113.601562 79.285156 C 110.984375 79.285156 108.867188 81.402344 108.867188 84.015625 Z M 108.867188 84.015625 "/>
<path style=" stroke:none;fill-rule:nonzero;fill:rgb(99.215686%,71.372549%,18.431373%);fill-opacity:1;" d="M 118.332031 24.851562 C 117.527344 19.992188 113.722656 16.1875 108.867188 15.382812 C 113.722656 14.578125 117.527344 10.773438 118.332031 5.917969 C 119.136719 10.773438 122.945312 14.578125 127.800781 15.382812 C 122.945312 16.1875 119.136719 19.992188 118.332031 24.851562 Z M 118.332031 24.851562 "/>
<path style=" stroke:none;fill-rule:nonzero;fill:rgb(99.215686%,71.372549%,18.431373%);fill-opacity:1;" d="M 23.667969 76.917969 C 22.863281 72.058594 19.054688 68.253906 14.199219 67.449219 C 19.054688 66.644531 22.863281 62.839844 23.667969 57.984375 C 24.472656 62.839844 28.277344 66.644531 33.132812 67.449219 C 28.277344 68.253906 24.472656 72.058594 23.667969 76.917969 Z M 23.667969 76.917969 "/>
<path style=" stroke:none;fill-rule:nonzero;fill:rgb(99.215686%,71.372549%,18.431373%);fill-opacity:1;" d="M 54.433594 62.714844 L 87.566406 62.714844 L 87.566406 72.183594 L 54.433594 72.183594 Z M 54.433594 62.714844 "/>
<path style=" stroke:none;fill-rule:nonzero;fill:rgb(99.215686%,71.372549%,18.431373%);fill-opacity:1;" d="M 142 55.617188 L 134.898438 55.617188 L 134.898438 48.515625 L 130.167969 48.515625 L 130.167969 55.617188 L 123.066406 55.617188 L 123.066406 60.351562 L 130.167969 60.351562 L 130.167969 67.449219 L 134.898438 67.449219 L 134.898438 60.351562 L 142 60.351562 Z M 142 55.617188 "/>
<path style=" stroke:none;fill-rule:nonzero;fill:rgb(85.882353%,85.882353%,85.882353%);fill-opacity:1;" d="M 0 136.082031 L 142 136.082031 L 142 140.816406 L 0 140.816406 Z M 0 136.082031 "/>
<path style=" stroke:none;fill-rule:nonzero;fill:rgb(85.882353%,85.882353%,85.882353%);fill-opacity:1;" d="M 47.332031 55.617188 C 39.492188 55.617188 33.132812 49.257812 33.132812 41.417969 L 33.132812 39.050781 L 37.867188 39.050781 L 37.867188 41.417969 C 37.867188 46.644531 42.105469 50.882812 47.332031 50.882812 Z M 47.332031 55.617188 "/>
</g>
</svg>
